<svg width="146" height="50" viewBox="0 0 146 50" fill="none" xmlns="http://www.w3.org/2000/svg">
<g clip-path="url(#clip0)">
<path d="M146.896 37.7667V46.4H118.89V2.83333H128.845V37.7667H146.896ZM17.4868 46.4C22.3069 46.4234 26.9976 44.8339 30.8188 41.8825C34.6401 38.931 37.3744 34.7855 38.5905 30.1L63.145 49.3667L87.6664 30.1333V46.4H115.639V37.7667H97.4218V2.83333H87.4673V19.1333L63.9414 37.6L58.6655 33.4667L70.0468 24.7667L82.2909 15.1333L75.2896 9.63333L51.8632 28.1L46.6205 23.9667L70.1464 5.5L63.145 0L38.5905 19.1333C37.3736 14.4672 34.6527 10.3373 30.8529 7.38847C27.053 4.43963 22.388 2.83787 17.5864 2.83333H0V46.4H17.4868ZM9.75546 37.7667V11.4333H17.4868C20.563 11.9747 23.3506 13.5884 25.3593 15.9905C27.3681 18.3927 28.4693 21.4294 28.4693 24.5667C28.4693 27.7039 27.3681 30.7407 25.3593 33.1428C23.3506 35.545 20.563 37.1587 17.4868 37.7L9.75546 37.7667Z" fill="#0085C3"/>
</g>
<defs>
<clipPath id="clip0">
<rect width="146" height="50" fill="white"/>
</clipPath>
</defs>
</svg>
