<svg width="138" height="50" viewBox="0 0 138 50" fill="none" xmlns="http://www.w3.org/2000/svg">
<g clip-path="url(#clip0)">
<path d="M16.7819 38.0718C13.5856 38.0718 10.9949 40.7632 10.9949 44.0825C10.9949 47.4012 13.5856 50.0926 16.7819 50.0926C19.9781 50.0926 22.5713 47.4012 22.5713 44.0825C22.5713 40.7632 19.9781 38.0718 16.7819 38.0718ZM16.7906 48.3322C15.4309 48.3322 13.2939 47.3308 13.2939 44.0804C13.2939 40.8315 15.4221 39.7931 16.7906 39.7931C18.1588 39.7931 20.2881 40.828 20.2881 44.0804C20.2881 47.3349 18.1521 48.3322 16.7906 48.3322Z" fill="white"/>
<path d="M105.901 38.0718C102.705 38.0718 100.113 40.7632 100.113 44.0825C100.113 47.4012 102.705 50.0926 105.901 50.0926C109.098 50.0926 111.692 47.4012 111.692 44.0825C111.692 40.7632 109.098 38.0718 105.901 38.0718ZM105.912 48.3322C104.55 48.3322 102.413 47.3308 102.413 44.0804C102.413 40.8315 104.542 39.7931 105.912 39.7931C107.28 39.7931 109.408 40.828 109.408 44.0804C109.408 47.3349 107.272 48.3322 105.912 48.3322Z" fill="white"/>
<path d="M2.18063 38.3501H0V49.8148H2.18063V38.3501Z" fill="white"/>
<path d="M39.5162 38.3501H37.3334V49.8148H39.5162V38.3501Z" fill="white"/>
<path d="M48.9709 39.9258H49.8836L49.9879 38.3975C49.5307 38.3501 49.1883 38.3257 48.7203 38.3257C44.2795 38.3257 41.4186 40.677 41.4186 44.0807C41.4186 47.485 44.2795 49.8357 48.7203 49.8357C49.1883 49.8357 49.5307 49.8099 49.9879 49.7618L49.8836 48.23H48.9709C45.9369 48.23 43.83 46.7742 43.83 44.0932C43.8303 41.4115 45.915 39.9258 48.9709 39.9258Z" fill="white"/>
<path d="M32.6916 45.1943C32.6916 45.2166 32.6811 45.2257 32.6717 45.209C31.149 42.3956 27.885 39.4526 25.8984 38.3501H24.3841V49.8148H26.4401C26.4401 49.8148 26.3581 40.976 26.3581 40.9579C26.3581 40.9293 26.3661 40.9203 26.3825 40.9286C28.8636 42.6339 31.4543 45.9296 32.8727 49.8141H34.6946V38.3501H32.6103C32.6103 38.3501 32.6916 45.1832 32.6916 45.1943Z" fill="white"/>
<path d="M96.306 45.1943C96.306 45.2166 96.2931 45.2257 96.2868 45.209C94.7626 42.3956 91.4987 39.4526 89.51 38.3501H87.9963V49.8148H90.0541C90.0541 49.8148 89.9721 40.976 89.9721 40.9579C89.9721 40.9293 89.9808 40.9203 89.9944 40.9286C92.4777 42.6339 95.0694 45.9296 96.485 49.8141H98.3075V38.3501H96.2243C96.2243 38.3501 96.306 45.1832 96.306 45.1943Z" fill="white"/>
<path d="M85.3547 38.3501H83.1751V49.8148H85.3547V38.3501Z" fill="white"/>
<path d="M50.6329 49.8147H52.7022C52.7022 49.8147 55.7951 42.5349 55.9117 42.2917C56.0527 42.5412 59.7302 49.8147 59.7302 49.8147H62.1852L55.9452 38.0273L50.6329 49.8147Z" fill="white"/>
<path d="M131.169 38.0273L125.859 49.8147H127.931C127.931 49.8147 131.023 42.5349 131.139 42.2917C131.28 42.5412 134.956 49.8147 134.956 49.8147H137.412L131.169 38.0273Z" fill="white"/>
<path d="M5.89935 43.0103C7.11356 41.7579 10.3908 38.3501 10.3908 38.3501H7.78751L3.01163 43.3692C5.30638 44.8759 7.22106 46.9275 8.4084 49.8141H10.6909C9.78525 47.1024 8.04787 44.6229 5.89935 43.0103Z" fill="white"/>
<path d="M115.689 38.3501H113.505V49.8148H120.15V48.1715H115.689V38.3501Z" fill="white"/>
<path d="M127.174 38.3501H119.161V39.9899H122.077V49.8148H124.257V39.9899H127.174V38.3501Z" fill="white"/>
<path d="M74.6924 43.7203C74.4826 44.121 74.1895 45.0311 73.9912 45.5663C73.9863 45.5817 73.9668 45.5817 73.9612 45.5663C73.7682 45.043 73.4726 44.1273 73.2674 43.7335C72.2706 41.6554 70.5957 38.9737 69.6523 37.9785C69.0988 38.9939 66.9101 47.8968 66.4505 49.8139H68.6374C68.6374 49.8139 70.2868 42.2101 70.2924 42.1871C70.2973 42.1613 70.3112 42.155 70.3238 42.1745C71.0414 43.2756 72.443 46.2054 73.2845 48.7965H74.6704C75.4473 46.3775 76.911 43.3202 77.6311 42.2198C77.6415 42.2017 77.6513 42.2129 77.6555 42.231C77.6611 42.2512 79.3136 49.8139 79.3136 49.8139H81.5016C81.0409 47.8968 78.854 38.9939 78.2998 37.9785C77.3365 38.9737 75.6982 41.6554 74.6924 43.7203Z" fill="white"/>
<path d="M86.5004 20.1574C86.4715 20.2072 86.4197 20.2228 86.3669 20.2199C86.297 20.215 68.5748 19.1665 68.5748 19.1665C68.5748 19.1665 50.8517 20.215 50.7818 20.2199C50.73 20.2228 50.6781 20.2072 50.6483 20.1574C50.7114 20.3556 50.7784 20.5538 50.8493 20.75C50.8317 20.6524 50.8952 20.5977 51.0214 20.5977H86.1264C86.254 20.5977 86.317 20.6524 86.2999 20.749C86.3703 20.5538 86.4373 20.3556 86.5004 20.1574Z" fill="white"/>
<path d="M86.9907 15.7572C86.3375 15.806 74.3308 15.2056 68.5743 15.2135C62.8213 15.2056 50.8116 15.806 50.1579 15.7572C50.0792 15.7523 50.0176 15.7172 50.0034 15.6655C50.0015 15.7563 50.0005 15.847 50.0005 15.9388C50.0005 16.0296 50.0015 16.1214 50.0034 16.2112C50.0176 16.1594 50.0792 16.1263 50.1579 16.1194C50.8116 16.0706 62.8213 16.671 68.5743 16.6622C74.3308 16.671 86.3375 16.0706 86.9907 16.1194C87.0694 16.1263 87.131 16.1594 87.1452 16.2112C87.1467 16.1214 87.1482 16.0296 87.1482 15.9388C87.1482 15.847 87.1467 15.7563 87.1452 15.6655C87.131 15.7172 87.0694 15.7523 86.9907 15.7572Z" fill="white"/>
<path d="M86.8186 17.9632C86.2779 17.9418 74.4521 17.1041 68.5748 17.1305C62.6981 17.1041 50.8732 17.9418 50.3295 17.9632C50.2347 17.9662 50.1589 17.9339 50.1301 17.8451C50.1579 18.0462 50.1907 18.2483 50.2269 18.4494C50.2298 18.3645 50.3027 18.3235 50.4048 18.3254C50.5437 18.3274 64.6904 18.7169 68.5748 18.7169C72.4568 18.7169 86.6055 18.3264 86.7443 18.3254C86.8465 18.3235 86.9194 18.3645 86.9223 18.4484C86.958 18.2473 86.9907 18.0462 87.0181 17.8451C86.9902 17.9339 86.9145 17.9662 86.8186 17.9632Z" fill="white"/>
<path d="M50.6487 11.719C50.6781 11.6693 50.7294 11.6536 50.7817 11.6566C50.8521 11.6605 68.5748 12.7099 68.5748 12.7099C68.5748 12.7099 86.2969 11.6605 86.3668 11.6566C86.4196 11.6536 86.4705 11.6683 86.5003 11.7181C86.4372 11.5199 86.3702 11.3217 86.2998 11.1255C86.3165 11.2241 86.2539 11.2788 86.1263 11.2788H51.0213C50.8956 11.2788 50.8321 11.2231 50.8492 11.1245C50.7783 11.3217 50.7113 11.5199 50.6487 11.719Z" fill="white"/>
<path d="M50.3295 13.9124C50.8727 13.9338 62.6981 14.7705 68.5743 14.7471C74.4521 14.7715 86.2779 13.9338 86.8186 13.9124C86.914 13.9085 86.9902 13.9416 87.0181 14.0305C86.9907 13.8294 86.9575 13.6283 86.9218 13.4272C86.9189 13.5111 86.846 13.5511 86.7443 13.5502C86.605 13.5482 72.4568 13.1587 68.5743 13.1587C64.6899 13.1587 50.5432 13.5482 50.4043 13.5502C50.3027 13.5511 50.2298 13.5111 50.2269 13.4272C50.1907 13.6263 50.1579 13.8294 50.1301 14.0305C50.1589 13.9416 50.2347 13.9085 50.3295 13.9124Z" fill="white"/>
<path d="M51.0214 11.2791H86.1263C86.271 11.2791 86.3331 11.2078 86.2877 11.0828C83.912 4.59664 76.881 -0.123535 68.5748 -0.123535C60.2687 -0.123535 53.2361 4.59664 50.862 11.0828C50.815 11.2068 50.8781 11.2791 51.0214 11.2791ZM50.1579 15.7571C50.8116 15.806 62.8218 15.2056 68.5748 15.2134C74.3308 15.2056 86.3375 15.806 86.9912 15.7571C87.0817 15.7503 87.1496 15.7044 87.1487 15.638C87.1389 15.1489 87.0998 14.61 87.0284 14.0751C87.0118 13.953 86.9282 13.9091 86.8186 13.913C86.2779 13.9345 74.452 14.7711 68.5748 14.7477C62.6981 14.7721 50.8732 13.9345 50.3295 13.913C50.221 13.9091 50.1369 13.953 50.1208 14.0751C50.0494 14.61 50.0098 15.1489 50 15.638C49.999 15.7044 50.067 15.7503 50.1579 15.7571ZM50.4048 13.5508C50.5437 13.5489 64.6904 13.1593 68.5748 13.1593C72.4568 13.1593 86.6055 13.5489 86.7443 13.5508C86.8607 13.5528 86.9394 13.4991 86.9193 13.3888C86.8211 12.8577 86.6861 12.2993 86.514 11.7496C86.4901 11.6735 86.429 11.653 86.3669 11.6569C86.297 11.6608 68.5748 12.7103 68.5748 12.7103C68.5748 12.7103 50.8517 11.6608 50.7818 11.6569C50.7207 11.653 50.6586 11.6735 50.6351 11.7496C50.4625 12.3002 50.3276 12.8577 50.2298 13.3888C50.2088 13.4991 50.288 13.5528 50.4048 13.5508ZM50.862 20.7946C53.2361 27.2789 60.2687 32 68.5748 32C76.881 32 83.912 27.2798 86.2877 20.7946C86.3331 20.6687 86.271 20.5984 86.1263 20.5984H51.0214C50.8781 20.5984 50.815 20.6687 50.862 20.7946ZM50 16.2384C50.0098 16.7275 50.0499 17.2674 50.1208 17.8024C50.1369 17.9234 50.221 17.9674 50.3295 17.9635C50.8732 17.943 62.6986 17.1044 68.5748 17.1307C74.452 17.1044 86.2779 17.942 86.8186 17.9635C86.9282 17.9674 87.0118 17.9234 87.0284 17.8024C87.1002 17.2664 87.1389 16.7275 87.1487 16.2384C87.1496 16.1711 87.0817 16.1262 86.9912 16.1193C86.338 16.0705 74.3308 16.6709 68.5748 16.6631C62.8218 16.6709 50.8116 16.0705 50.1579 16.1193C50.067 16.1262 49.999 16.1711 50 16.2384ZM50.2298 18.4867C50.3276 19.0178 50.462 19.5772 50.6351 20.1259C50.6586 20.202 50.7207 20.2245 50.7818 20.2206C50.8522 20.2157 68.5748 19.1672 68.5748 19.1672C68.5748 19.1672 86.297 20.2157 86.3669 20.2206C86.429 20.2245 86.4901 20.202 86.514 20.1259C86.6861 19.5782 86.8211 19.0178 86.9193 18.4867C86.9394 18.3774 86.8607 18.3237 86.7443 18.3247C86.6055 18.3266 72.4568 18.7171 68.5748 18.7171C64.6904 18.7171 50.5437 18.3266 50.4048 18.3247C50.288 18.3237 50.2088 18.3784 50.2298 18.4867Z" fill="url(#paint0_radial)"/>
</g>
<defs>
<radialGradient id="paint0_radial" cx="0" cy="0" r="1" gradientUnits="userSpaceOnUse" gradientTransform="translate(68.5743 11.8238) scale(21.8905 20.2358)">
<stop stop-color="#9BC4F0"/>
<stop offset="0.5933" stop-color="#0075D2"/>
<stop offset="1" stop-color="#014880"/>
</radialGradient>
<clipPath id="clip0">
<rect width="137.952" height="50" fill="white"/>
</clipPath>
</defs>
</svg>
