<?xml version="1.0" encoding="utf-8"?>
<!-- Generator: Adobe Illustrator 23.0.2, SVG Export Plug-In . SVG Version: 6.00 Build 0)  -->
<svg version="1.1" id="Слой_1" xmlns="http://www.w3.org/2000/svg" xmlns:xlink="http://www.w3.org/1999/xlink" x="0px" y="0px"
	 viewBox="0 0 191 50" style="enable-background:new 0 0 191 50;" xml:space="preserve">
<style type="text/css">
	.st0{clip-path:url(#SVGID_2_);}
	.st1{fill:#D20416;}
</style>
<g>
	<defs>
		<rect id="SVGID_1_" width="190.7" height="50"/>
	</defs>
	<clipPath id="SVGID_2_">
		<use xlink:href="#SVGID_1_"  style="overflow:visible;"/>
	</clipPath>
	<g class="st0">
		<path class="st1" d="M0,0v49.9h190.7V0H0z M36.3,42.3H7.6v-3.6l22.2-27.2H8.2v-4h27.6v3.6L13.5,38.4h22.7V42.3z M66.1,42.4
			l-3.2-8.9H47.1l-3.2,8.9h-5L52.2,7.6h5.4L71,42.4H66.1z M100.3,36.6c-0.6,1.2-1.4,2.3-2.5,3.2c-2.1,1.7-5.2,2.5-9.1,2.5H76.1V7.6
			h12.1c3.6,0,6.4,0.7,8.4,2.2c1,0.7,1.7,1.7,2.3,2.8c0.5,1.1,0.7,2.3,0.7,3.5c0.1,1.8-0.4,3.6-1.5,5.1c-1.1,1.3-2.7,2.2-4.4,2.4
			c2.1,0.4,4,1.5,5.4,3.1c1.3,1.7,2,3.8,1.9,5.9C101.1,34,100.8,35.4,100.3,36.6z M132.8,36.6c-0.6,1.2-1.4,2.3-2.5,3.2
			c-2.1,1.7-5.2,2.5-9.1,2.5h-12.6V7.6h12.1c3.6,0,6.4,0.7,8.4,2.2c1,0.7,1.7,1.7,2.3,2.8c0.5,1.1,0.7,2.3,0.7,3.5
			c0.1,1.8-0.4,3.6-1.5,5.1c-1.1,1.3-2.7,2.2-4.4,2.4c2.1,0.4,4,1.5,5.4,3.1c1.3,1.7,2,3.8,1.9,5.9C133.6,34,133.3,35.4,132.8,36.6z
			 M145.9,42.3h-4.7V7.6h4.7V42.3z M177.9,42.3l-9.6-14.6l-9.7,14.6h-5.1L165.7,24L154.9,7.6h5.2l8.3,12.4l8.3-12.4h5.1l-10.9,16.3
			l12.2,18.5H177.9z"/>
		<path class="st1" d="M126.7,27.3c-1.2-1-3.1-1.6-5.7-1.5l-7.6,0v12.7h7.6c2.5,0,4.4-0.5,5.7-1.6c1.2-1,1.8-2.7,1.8-4.8
			C128.5,30,127.9,28.3,126.7,27.3z"/>
		<path class="st1" d="M94.1,27.3c-1.2-1-3.1-1.6-5.7-1.5l-7.6,0v12.7h7.6c2.5,0,4.4-0.5,5.7-1.6c1.2-1,1.8-2.7,1.8-4.8
			C96,30,95.4,28.3,94.1,27.3z"/>
		<path class="st1" d="M93.1,20.6c0.6-0.5,1-1.1,1.3-1.8c0.3-0.7,0.4-1.4,0.4-2.2c0.1-0.7-0.1-1.5-0.4-2.2c-0.3-0.7-0.8-1.3-1.3-1.8
			c-1.1-0.8-2.9-1.3-5.2-1.3l-7,0v10.5h7C90.2,21.9,91.9,21.5,93.1,20.6z"/>
		<path class="st1" d="M125.6,20.6c0.6-0.5,1-1.1,1.3-1.8c0.3-0.7,0.4-1.4,0.4-2.2c0.1-0.7-0.1-1.5-0.4-2.2
			c-0.3-0.7-0.8-1.3-1.3-1.8c-1.1-0.8-2.9-1.3-5.2-1.3l-7,0v10.5h7C122.7,21.9,124.4,21.5,125.6,20.6z"/>
		<polygon class="st1" points="48.5,29.5 61.4,29.5 54.9,12.3 		"/>
	</g>
</g>
</svg>
