<svg width="557" height="341" viewBox="0 0 557 341" fill="none" xmlns="http://www.w3.org/2000/svg">
<g filter="url(#filter0_d)">
<circle cx="280.903" cy="129.903" r="103.122" fill="url(#paint0_radial)"/>
<circle cx="280.903" cy="129.903" r="102.622" stroke="url(#paint1_linear)"/>
</g>
<path d="M280.903 12.2791C215.941 12.2791 163.279 64.941 163.279 129.903C163.279 194.865 215.941 247.527 280.903 247.527C287.929 247.527 294.812 246.911 301.5 245.729M393.559 95.9729C396.79 106.716 398.526 118.107 398.526 129.903C398.526 160.602 386.766 188.554 367.504 209.5" stroke="url(#paint2_linear)"/>
<path d="M280.5 258C209.531 258 152 200.469 152 129.5C152 113.278 155.006 97.7574 160.492 83.4659M280.5 1C298.235 1 315.131 4.59291 330.5 11.0906M359 231.243C389.414 207.742 409 170.909 409 129.5C409 109.82 404.576 91.1732 396.668 74.5" stroke="url(#paint3_linear)"/>
<path d="M173 201L1 265V321" stroke="url(#paint4_linear)"/>
<path d="M384 201L556 265V321" stroke="url(#paint5_linear)"/>
<rect x="256.5" y="105.5" width="48" height="13" stroke="#54B948"/>
<ellipse cx="304.5" cy="126.5" rx="2.5" ry="1.5" fill="#54B948"/>
<path d="M247 125H228C226.895 125 226 124.105 226 123V107" stroke="#54B948"/>
<circle cx="225.5" cy="104.5" r="4" stroke="#52426B"/>
<line x1="230" y1="136.5" x2="247" y2="136.5" stroke="#54B948"/>
<circle cx="229" cy="136" r="2.5" stroke="#52426B"/>
<path d="M247 146H228C226.895 146 226 146.895 226 148V163" stroke="#54B948"/>
<circle r="4" transform="matrix(1 0 0 -1 225.5 165.5)" stroke="#52426B"/>
<path d="M312 125H333C334.105 125 335 124.105 335 123V107" stroke="#54B948"/>
<path d="M330.5 104.5C330.5 106.766 332.121 108.5 334 108.5C335.879 108.5 337.5 106.766 337.5 104.5C337.5 102.234 335.879 100.5 334 100.5C332.121 100.5 330.5 102.234 330.5 104.5Z" stroke="#52426B"/>
<line y1="-0.5" x2="18" y2="-0.5" transform="matrix(-1 0 0 1 330 137)" stroke="#54B948"/>
<path d="M328.5 136C328.5 137.47 329.477 138.5 330.5 138.5C331.523 138.5 332.5 137.47 332.5 136C332.5 134.53 331.523 133.5 330.5 133.5C329.477 133.5 328.5 134.53 328.5 136Z" stroke="#52426B"/>
<path d="M312 146H333C334.105 146 335 146.895 335 148V163" stroke="#54B948"/>
<path d="M330.5 165.5C330.5 163.234 332.121 161.5 334 161.5C335.879 161.5 337.5 163.234 337.5 165.5C337.5 167.766 335.879 169.5 334 169.5C332.121 169.5 330.5 167.766 330.5 165.5Z" stroke="#52426B"/>
<path d="M255.603 149H249C247.895 149 247 148.105 247 147V121C247 119.895 247.895 119 249 119H310C311.105 119 312 119.895 312 121V147C312 148.105 311.105 149 310 149H303.397" stroke="url(#paint6_linear)"/>
<rect x="256.5" y="135.5" width="48" height="20" stroke="#54B948"/>
<path d="M73.4541 292.165L73.0146 291.267L70.7114 292.394L73.1695 293.124L73.4541 292.165ZM81.1961 297.063L80.4117 297.683H80.4117L81.1961 297.063ZM78.2731 316.892L77.6822 316.085L77.6768 316.089L78.2731 316.892ZM35.1391 321H34.1391V322H35.1391V321ZM35.1391 265.7V264.7H34.1391V265.7H35.1391ZM75.9031 269.413L76.4717 268.59L75.9031 269.413ZM79.2211 287.267L80.0532 287.822L80.0596 287.812L79.2211 287.267ZM47.8581 288.61H46.8581V289.61H47.8581V288.61ZM66.1071 286.951L66.7211 287.74L66.73 287.733L66.7388 287.726L66.1071 286.951ZM66.0281 276.918L65.3964 277.693L65.4033 277.699L65.4103 277.704L66.0281 276.918ZM47.8581 275.18V274.18H46.8581V275.18H47.8581ZM47.8581 297.537V296.537H46.8581V297.537H47.8581ZM47.8581 311.52H46.8581V312.52H47.8581V311.52ZM73.1695 293.124C76.3864 294.079 78.7744 295.613 80.4117 297.683L81.9805 296.443C80.0365 293.984 77.2631 292.253 73.7387 291.206L73.1695 293.124ZM80.4117 297.683C82.0423 299.746 82.8821 302.309 82.8821 305.437H84.8821C84.8821 301.929 83.9312 298.91 81.9805 296.443L80.4117 297.683ZM82.8821 305.437C82.8821 310.037 81.1478 313.547 77.6822 316.085L78.864 317.699C82.8771 314.76 84.8821 310.633 84.8821 305.437H82.8821ZM77.6768 316.089C74.2298 318.65 69.181 320 62.3941 320V322C69.4059 322 74.9431 320.611 78.8694 317.695L77.6768 316.089ZM62.3941 320H35.1391V322H62.3941V320ZM36.1391 321V265.7H34.1391V321H36.1391ZM35.1391 266.7H60.8931V264.7H35.1391V266.7ZM60.8931 266.7C67.2069 266.7 71.9825 267.919 75.3345 270.236L76.4717 268.59C72.6611 265.957 67.43 264.7 60.8931 264.7V266.7ZM75.3345 270.236C78.6293 272.513 80.2751 275.725 80.2751 279.999H82.2751C82.2751 275.109 80.3396 271.264 76.4717 268.59L75.3345 270.236ZM80.2751 279.999C80.2751 282.562 79.6371 284.792 78.3827 286.722L80.0596 287.812C81.5438 285.529 82.2751 282.913 82.2751 279.999H80.2751ZM78.3891 286.712C77.1289 288.602 75.3499 290.124 73.0146 291.267L73.8937 293.063C76.509 291.783 78.5746 290.04 80.0532 287.822L78.3891 286.712ZM47.8581 289.61H59.7871V287.61H47.8581V289.61ZM59.7871 289.61C62.6857 289.61 65.0503 289.04 66.7211 287.74L65.4932 286.162C64.3199 287.074 62.4712 287.61 59.7871 287.61V289.61ZM66.7388 287.726C68.4422 286.338 69.2401 284.339 69.2401 281.895H67.2401C67.2401 283.875 66.616 285.246 65.4754 286.176L66.7388 287.726ZM69.2401 281.895C69.2401 279.481 68.4003 277.51 66.6459 276.132L65.4103 277.704C66.6052 278.643 67.2401 279.99 67.2401 281.895H69.2401ZM66.6598 276.143C64.99 274.782 62.6468 274.18 59.7871 274.18V276.18C62.4048 276.18 64.2223 276.736 65.3964 277.693L66.6598 276.143ZM59.7871 274.18H47.8581V276.18H59.7871V274.18ZM46.8581 275.18V288.61H48.8581V275.18H46.8581ZM61.9201 312.52C65.0267 312.52 67.5412 311.911 69.2943 310.527C71.0924 309.108 71.9261 307.005 71.9261 304.41H69.9261C69.9261 306.555 69.2588 308.007 68.055 308.958C66.8061 309.944 64.8176 310.52 61.9201 310.52V312.52ZM71.9261 304.41C71.9261 301.881 71.0838 299.836 69.2813 298.46C67.5299 297.124 65.021 296.537 61.9201 296.537V298.537C64.8232 298.537 66.8173 299.096 68.0679 300.05C69.2674 300.966 69.9261 302.357 69.9261 304.41H71.9261ZM61.9201 296.537H47.8581V298.537H61.9201V296.537ZM46.8581 297.537V311.52H48.8581V297.537H46.8581ZM47.8581 312.52H61.9201V310.52H47.8581V312.52ZM131.449 309.15L132.374 308.768L132.118 308.15H131.449V309.15ZM105.774 309.15V308.15H105.106L104.85 308.768L105.774 309.15ZM100.876 321V322H101.545L101.801 321.382L100.876 321ZM87.7624 321L86.849 320.593L86.2218 322H87.7624V321ZM112.41 265.7V264.7H111.761L111.497 265.293L112.41 265.7ZM125.05 265.7L125.963 265.292L125.699 264.7H125.05V265.7ZM149.777 321V322H151.32L150.69 320.592L149.777 321ZM136.347 321L135.423 321.382L135.679 322H136.347V321ZM127.42 299.433V300.433H128.917L128.344 299.05L127.42 299.433ZM118.651 278.261L119.575 277.878L118.651 275.648L117.727 277.878L118.651 278.261ZM109.882 299.433L108.958 299.05L108.386 300.433H109.882V299.433ZM131.449 308.15H105.774V310.15H131.449V308.15ZM104.85 308.768L99.9522 320.618L101.801 321.382L106.699 309.532L104.85 308.768ZM100.876 320H87.7624V322H100.876V320ZM88.6758 321.407L113.324 266.107L111.497 265.293L86.849 320.593L88.6758 321.407ZM112.41 266.7H125.05V264.7H112.41V266.7ZM124.137 266.108L148.864 321.408L150.69 320.592L125.963 265.292L124.137 266.108ZM149.777 320H136.347V322H149.777V320ZM137.272 320.618L132.374 308.768L130.525 309.532L135.423 321.382L137.272 320.618ZM128.344 299.05L119.575 277.878L117.727 278.644L126.496 299.816L128.344 299.05ZM117.727 277.878L108.958 299.05L110.806 299.816L119.575 278.644L117.727 277.878ZM109.882 300.433H127.42V298.433H109.882V300.433ZM193.767 268.149L193.352 269.059L193.357 269.061L193.767 268.149ZM202.141 296.431L202.98 296.975L202.984 296.969L202.141 296.431ZM193.767 303.383L194.17 304.298L194.177 304.295L193.767 303.383ZM169.909 305.753V304.753H168.909V305.753H169.909ZM169.909 321V322H170.909V321H169.909ZM157.111 321H156.111V322H157.111V321ZM157.111 265.7V264.7H156.111V265.7H157.111ZM189.106 292.876L189.738 293.651L189.744 293.646L189.75 293.641L189.106 292.876ZM189.106 278.656L188.462 279.421L188.468 279.426L188.474 279.431L189.106 278.656ZM169.909 276.128V275.128H168.909V276.128H169.909ZM169.909 295.325H168.909V296.325H169.909V295.325ZM181.048 266.7C185.837 266.7 189.929 267.498 193.352 269.059L194.182 267.239C190.442 265.534 186.055 264.7 181.048 264.7V266.7ZM193.357 269.061C196.836 270.624 199.47 272.823 201.302 275.645L202.98 274.557C200.915 271.375 197.965 268.939 194.177 267.237L193.357 269.061ZM201.302 275.645C203.131 278.462 204.064 281.822 204.064 285.766H206.064C206.064 281.494 205.048 277.744 202.98 274.557L201.302 275.645ZM204.064 285.766C204.064 289.654 203.132 293.018 201.298 295.893L202.984 296.969C205.047 293.735 206.064 289.988 206.064 285.766H204.064ZM201.302 295.887C199.47 298.709 196.836 300.908 193.357 302.471L194.177 304.295C197.965 302.593 200.915 300.157 202.98 296.975L201.302 295.887ZM193.363 302.468C189.937 303.98 185.841 304.753 181.048 304.753V306.753C186.051 306.753 190.434 305.946 194.17 304.298L193.363 302.468ZM181.048 304.753H169.909V306.753H181.048V304.753ZM168.909 305.753V321H170.909V305.753H168.909ZM169.909 320H157.111V322H169.909V320ZM158.111 321V265.7H156.111V321H158.111ZM157.111 266.7H181.048V264.7H157.111V266.7ZM180.337 296.325C184.303 296.325 187.489 295.485 189.738 293.651L188.474 292.101C186.72 293.532 184.06 294.325 180.337 294.325V296.325ZM189.75 293.641C192.016 291.733 193.108 289.061 193.108 285.766H191.108C191.108 288.581 190.199 290.648 188.462 292.111L189.75 293.641ZM193.108 285.766C193.108 282.426 192.02 279.743 189.738 277.881L188.474 279.431C190.195 280.835 191.108 282.892 191.108 285.766H193.108ZM189.75 277.891C187.5 275.997 184.31 275.128 180.337 275.128V277.128C184.053 277.128 186.709 277.945 188.462 279.421L189.75 277.891ZM180.337 275.128H169.909V277.128H180.337V275.128ZM168.909 276.128V295.325H170.909V276.128H168.909ZM169.909 296.325H180.337V294.325H169.909V296.325ZM213.506 265.7V264.7H212.506V265.7H213.506ZM226.225 265.7H227.225V264.7H226.225V265.7ZM226.225 301.724H225.225V304.782L227.032 302.315L226.225 301.724ZM252.611 265.7V264.7H252.104L251.805 265.109L252.611 265.7ZM264.619 265.7H265.619V264.7H264.619V265.7ZM264.619 321V322H265.619V321H264.619ZM251.979 321H250.979V322H251.979V321ZM251.979 285.055H252.979V282.003L251.173 284.463L251.979 285.055ZM225.593 321V322H226.1L226.399 321.592L225.593 321ZM213.506 321H212.506V322H213.506V321ZM213.506 266.7H226.225V264.7H213.506V266.7ZM225.225 265.7V301.724H227.225V265.7H225.225ZM227.032 302.315L253.418 266.291L251.805 265.109L225.419 301.133L227.032 302.315ZM252.611 266.7H264.619V264.7H252.611V266.7ZM263.619 265.7V321H265.619V265.7H263.619ZM264.619 320H251.979V322H264.619V320ZM252.979 321V285.055H250.979V321H252.979ZM251.173 284.463L224.787 320.408L226.399 321.592L252.785 285.647L251.173 284.463ZM225.593 320H213.506V322H225.593V320ZM214.506 321V265.7H212.506V321H214.506ZM315.834 309.15L316.758 308.768L316.503 308.15H315.834V309.15ZM290.159 309.15V308.15H289.49L289.235 308.768L290.159 309.15ZM285.261 321V322H285.93L286.185 321.382L285.261 321ZM272.147 321L271.234 320.593L270.607 322H272.147V321ZM296.795 265.7V264.7H296.146L295.882 265.293L296.795 265.7ZM309.435 265.7L310.348 265.292L310.083 264.7H309.435V265.7ZM334.162 321V322H335.705L335.075 320.592L334.162 321ZM320.732 321L319.808 321.382L320.063 322H320.732V321ZM311.805 299.433V300.433H313.302L312.729 299.05L311.805 299.433ZM303.036 278.261L303.96 277.878L303.036 275.648L302.112 277.878L303.036 278.261ZM294.267 299.433L293.343 299.05L292.771 300.433H294.267V299.433ZM315.834 308.15H290.159V310.15H315.834V308.15ZM289.235 308.768L284.337 320.618L286.185 321.382L291.083 309.532L289.235 308.768ZM285.261 320H272.147V322H285.261V320ZM273.061 321.407L297.709 266.107L295.882 265.293L271.234 320.593L273.061 321.407ZM296.795 266.7H309.435V264.7H296.795V266.7ZM308.522 266.108L333.249 321.408L335.075 320.592L310.348 265.292L308.522 266.108ZM334.162 320H320.732V322H334.162V320ZM321.656 320.618L316.758 308.768L314.91 309.532L319.808 321.382L321.656 320.618ZM312.729 299.05L303.96 277.878L302.112 278.644L310.881 299.816L312.729 299.05ZM302.112 277.878L293.343 299.05L295.191 299.816L303.96 278.644L302.112 277.878ZM294.267 300.433H311.805V298.433H294.267V300.433ZM392.214 265.7H393.214V264.7H392.214V265.7ZM392.214 321V322H393.214V321H392.214ZM379.416 321H378.416V322H379.416V321ZM379.416 298.327H380.416V297.327H379.416V298.327ZM354.294 298.327V297.327H353.294V298.327H354.294ZM354.294 321V322H355.294V321H354.294ZM341.496 321H340.496V322H341.496V321ZM341.496 265.7V264.7H340.496V265.7H341.496ZM354.294 265.7H355.294V264.7H354.294V265.7ZM354.294 287.504H353.294V288.504H354.294V287.504ZM379.416 287.504V288.504H380.416V287.504H379.416ZM379.416 265.7V264.7H378.416V265.7H379.416ZM391.214 265.7V321H393.214V265.7H391.214ZM392.214 320H379.416V322H392.214V320ZM380.416 321V298.327H378.416V321H380.416ZM379.416 297.327H354.294V299.327H379.416V297.327ZM353.294 298.327V321H355.294V298.327H353.294ZM354.294 320H341.496V322H354.294V320ZM342.496 321V265.7H340.496V321H342.496ZM341.496 266.7H354.294V264.7H341.496V266.7ZM353.294 265.7V287.504H355.294V265.7H353.294ZM354.294 288.504H379.416V286.504H354.294V288.504ZM380.416 287.504V265.7H378.416V287.504H380.416ZM379.416 266.7H392.214V264.7H379.416V266.7ZM448.334 276.128V277.128H449.334V276.128H448.334ZM430.638 276.128V275.128H429.638V276.128H430.638ZM430.638 321V322H431.638V321H430.638ZM417.998 321H416.998V322H417.998V321ZM417.998 276.128H418.998V275.128H417.998V276.128ZM400.381 276.128H399.381V277.128H400.381V276.128ZM400.381 265.7V264.7H399.381V265.7H400.381ZM448.334 265.7H449.334V264.7H448.334V265.7ZM448.334 275.128H430.638V277.128H448.334V275.128ZM429.638 276.128V321H431.638V276.128H429.638ZM430.638 320H417.998V322H430.638V320ZM418.998 321V276.128H416.998V321H418.998ZM417.998 275.128H400.381V277.128H417.998V275.128ZM401.381 276.128V265.7H399.381V276.128H401.381ZM400.381 266.7H448.334V264.7H400.381V266.7ZM447.334 265.7V276.128H449.334V265.7H447.334ZM498.635 288.373L497.992 289.139L497.998 289.144L498.635 288.373ZM498.082 316.102L498.719 316.873L498.72 316.872L498.082 316.102ZM456.37 321H455.37V322H456.37V321ZM456.37 265.7V264.7H455.37V265.7H456.37ZM469.089 265.7H470.089V264.7H469.089V265.7ZM469.089 283.87H468.089V284.87H469.089V283.87ZM488.365 309.071L487.712 308.313L487.702 308.322L488.365 309.071ZM469.089 293.35V292.35H468.089V293.35H469.089ZM469.089 311.52H468.089V312.52H469.089V311.52ZM511.117 265.7V264.7H510.117V265.7H511.117ZM523.836 265.7H524.836V264.7H523.836V265.7ZM523.836 321V322H524.836V321H523.836ZM511.117 321H510.117V322H511.117V321ZM483.151 284.87C489.759 284.87 494.656 286.343 497.992 289.139L499.277 287.607C495.451 284.399 490.025 282.87 483.151 282.87V284.87ZM497.998 289.144C501.345 291.909 503.086 296.042 503.086 301.724H505.086C505.086 295.609 503.192 290.841 499.271 287.602L497.998 289.144ZM503.086 301.724C503.086 307.761 501.17 312.243 497.443 315.332L498.72 316.872C502.999 313.325 505.086 308.222 505.086 301.724H503.086ZM497.444 315.331C493.735 318.398 488.41 320 481.334 320V322C488.688 322 494.529 320.337 498.719 316.873L497.444 315.331ZM481.334 320H456.37V322H481.334V320ZM457.37 321V265.7H455.37V321H457.37ZM456.37 266.7H469.089V264.7H456.37V266.7ZM468.089 265.7V283.87H470.089V265.7H468.089ZM469.089 284.87H483.151V282.87H469.089V284.87ZM480.623 312.52C484.099 312.52 486.946 311.663 489.028 309.82L487.702 308.322C486.096 309.744 483.782 310.52 480.623 310.52V312.52ZM489.017 309.829C491.186 307.961 492.209 305.283 492.209 301.961H490.209C490.209 304.854 489.335 306.915 487.712 308.313L489.017 309.829ZM492.209 301.961C492.209 298.876 491.25 296.4 489.193 294.727C487.175 293.086 484.261 292.35 480.623 292.35V294.35C484.041 294.35 486.42 295.049 487.931 296.279C489.403 297.475 490.209 299.306 490.209 301.961H492.209ZM480.623 292.35H469.089V294.35H480.623V292.35ZM468.089 293.35V311.52H470.089V293.35H468.089ZM469.089 312.52H480.623V310.52H469.089V312.52ZM511.117 266.7H523.836V264.7H511.117V266.7ZM522.836 265.7V321H524.836V265.7H522.836ZM523.836 320H511.117V322H523.836V320ZM512.117 321V265.7H510.117V321H512.117Z" fill="url(#paint7_linear)"/>
<defs>
<filter id="filter0_d" x="142.781" y="26.7805" width="276.245" height="281.245" filterUnits="userSpaceOnUse" color-interpolation-filters="sRGB">
<feFlood flood-opacity="0" result="BackgroundImageFix"/>
<feColorMatrix in="SourceAlpha" type="matrix" values="0 0 0 0 0 0 0 0 0 0 0 0 0 0 0 0 0 0 127 0"/>
<feOffset dy="40"/>
<feGaussianBlur stdDeviation="17.5"/>
<feColorMatrix type="matrix" values="0 0 0 0 0.898039 0 0 0 0 0.898039 0 0 0 0 0.898039 0 0 0 1 0"/>
<feBlend mode="normal" in2="BackgroundImageFix" result="effect1_dropShadow"/>
<feBlend mode="normal" in="SourceGraphic" in2="effect1_dropShadow" result="shape"/>
</filter>
<radialGradient id="paint0_radial" cx="0" cy="0" r="1" gradientUnits="userSpaceOnUse" gradientTransform="translate(280.903 129.903) rotate(90) scale(103.122)">
<stop offset="0.552083" stop-color="white"/>
<stop offset="1" stop-color="#F7F8F1" stop-opacity="0.95"/>
</radialGradient>
<linearGradient id="paint1_linear" x1="280.903" y1="26.7805" x2="280.903" y2="233.025" gradientUnits="userSpaceOnUse">
<stop stop-color="#54B948"/>
<stop offset="1" stop-color="#52426B"/>
</linearGradient>
<linearGradient id="paint2_linear" x1="280.903" y1="12.2791" x2="280.903" y2="247.527" gradientUnits="userSpaceOnUse">
<stop stop-color="#54B948" stop-opacity="0.6"/>
<stop offset="1" stop-color="#000D3A" stop-opacity="0.5"/>
</linearGradient>
<linearGradient id="paint3_linear" x1="280.5" y1="1" x2="280.5" y2="258" gradientUnits="userSpaceOnUse">
<stop stop-color="#54B948" stop-opacity="0.6"/>
<stop offset="1" stop-color="#000D3A" stop-opacity="0.5"/>
</linearGradient>
<linearGradient id="paint4_linear" x1="87" y1="201" x2="87" y2="321" gradientUnits="userSpaceOnUse">
<stop stop-color="#54B948" stop-opacity="0.6"/>
<stop offset="1" stop-color="#000D3A" stop-opacity="0.5"/>
</linearGradient>
<linearGradient id="paint5_linear" x1="470" y1="201" x2="470" y2="321" gradientUnits="userSpaceOnUse">
<stop stop-color="#54B948" stop-opacity="0.6"/>
<stop offset="1" stop-color="#000D3A" stop-opacity="0.5"/>
</linearGradient>
<linearGradient id="paint6_linear" x1="279.5" y1="119" x2="279.5" y2="149" gradientUnits="userSpaceOnUse">
<stop stop-color="#54B948"/>
<stop offset="1" stop-color="#52426B"/>
</linearGradient>
<linearGradient id="paint7_linear" x1="279.5" y1="245" x2="279.5" y2="341" gradientUnits="userSpaceOnUse">
<stop stop-color="#54B948" stop-opacity="0.6"/>
<stop offset="1" stop-color="#000D3A" stop-opacity="0.5"/>
</linearGradient>
</defs>
</svg>
