<svg width="280" height="848" viewBox="0 0 280 848" fill="none" xmlns="http://www.w3.org/2000/svg">
<g filter="url(#filter0_d)">
<circle cx="140.905" cy="419.052" r="103.076" transform="rotate(90.101 140.905 419.052)" fill="url(#paint0_radial)"/>
<circle cx="140.905" cy="419.052" r="102.576" transform="rotate(90.101 140.905 419.052)" stroke="url(#paint1_linear)"/>
</g>
<path d="M258.476 419.259C258.591 354.327 206.045 301.595 141.113 301.481C76.1798 301.367 23.4486 353.912 23.3342 418.845C23.3218 425.868 23.9255 432.749 25.0944 439.436M174.622 531.718C163.877 534.928 152.489 536.644 140.698 536.623C110.013 536.569 82.0937 524.764 61.1912 505.474" stroke="url(#paint2_linear)"/>
<path d="M12.8664 418.424C12.9914 347.487 70.5984 290.083 141.535 290.208C157.75 290.236 173.258 293.268 187.534 298.777M269.751 418.877C269.72 436.604 266.099 453.486 259.577 468.836M39.4732 496.936C62.9094 527.377 99.6923 547.02 141.082 547.093C160.754 547.127 179.4 542.738 196.079 534.863" stroke="url(#paint3_linear)"/>
<path d="M70.0303 311.072L69.9191 201.694L2.19454 122.893" stroke="url(#paint4_linear)"/>
<path d="M69.6584 524.954L69.6585 662.987L2.38535 748.964" stroke="url(#paint5_linear)"/>
<path d="M184.151 540.1L184.112 729.512L100.674 847.503" stroke="url(#paint6_linear)"/>
<path d="M183.43 297.589L183.483 114.87L100.104 1.08058" stroke="url(#paint7_linear)"/>
<rect x="108.5" y="384.5" width="66" height="36" rx="1.5" stroke="url(#paint8_linear)"/>
<rect x="111.5" y="387.5" width="60" height="30" rx="1.5" stroke="#54B948"/>
<path d="M137 422.5H147C147.276 422.5 147.5 422.724 147.5 423V427.638C147.5 428.009 147.711 428.34 148.032 428.5H135.968C136.289 428.34 136.5 428.009 136.5 427.638V423C136.5 422.724 136.724 422.5 137 422.5Z" stroke="#52426B"/>
<rect x="108.5" y="432.5" width="66" height="21" rx="1.5" stroke="#52426B"/>
<rect x="112.5" y="436.5" width="57" height="2" stroke="#54B948"/>
<rect x="112.5" y="444.5" width="57" height="2" stroke="#54B948"/>
<rect x="112.5" y="440.5" width="57" height="2" stroke="#54B948"/>
<rect x="112.5" y="448.5" width="57" height="2" stroke="#54B948"/>
<defs>
<filter id="filter0_d" x="2.64746" y="315.794" width="276.515" height="281.515" filterUnits="userSpaceOnUse" color-interpolation-filters="sRGB">
<feFlood flood-opacity="0" result="BackgroundImageFix"/>
<feColorMatrix in="SourceAlpha" type="matrix" values="0 0 0 0 0 0 0 0 0 0 0 0 0 0 0 0 0 0 127 0"/>
<feOffset dy="40"/>
<feGaussianBlur stdDeviation="17.5"/>
<feColorMatrix type="matrix" values="0 0 0 0 0.898039 0 0 0 0 0.898039 0 0 0 0 0.898039 0 0 0 1 0"/>
<feBlend mode="normal" in2="BackgroundImageFix" result="effect1_dropShadow"/>
<feBlend mode="normal" in="SourceGraphic" in2="effect1_dropShadow" result="shape"/>
</filter>
<radialGradient id="paint0_radial" cx="0" cy="0" r="1" gradientUnits="userSpaceOnUse" gradientTransform="translate(140.905 419.052) rotate(90) scale(103.076)">
<stop offset="0.552083" stop-color="white"/>
<stop offset="1" stop-color="#F7F8F1" stop-opacity="0.95"/>
</radialGradient>
<linearGradient id="paint1_linear" x1="140.905" y1="315.976" x2="140.905" y2="522.128" gradientUnits="userSpaceOnUse">
<stop stop-color="#54B948"/>
<stop offset="1" stop-color="#52426B"/>
</linearGradient>
<linearGradient id="paint2_linear" x1="258.476" y1="419.259" x2="23.3342" y2="418.845" gradientUnits="userSpaceOnUse">
<stop stop-color="#54B948" stop-opacity="0.6"/>
<stop offset="1" stop-color="#000D3A" stop-opacity="0.5"/>
</linearGradient>
<linearGradient id="paint3_linear" x1="269.751" y1="418.877" x2="12.8664" y2="418.424" gradientUnits="userSpaceOnUse">
<stop stop-color="#54B948" stop-opacity="0.6"/>
<stop offset="1" stop-color="#000D3A" stop-opacity="0.5"/>
</linearGradient>
<linearGradient id="paint4_linear" x1="70.129" y1="256.45" x2="-49.8172" y2="256.239" gradientUnits="userSpaceOnUse">
<stop stop-color="#54B948" stop-opacity="0.6"/>
<stop offset="1" stop-color="#000D3A" stop-opacity="0.5"/>
</linearGradient>
<linearGradient id="paint5_linear" x1="69.5066" y1="594.055" x2="-50.4394" y2="593.792" gradientUnits="userSpaceOnUse">
<stop stop-color="#54B948" stop-opacity="0.6"/>
<stop offset="1" stop-color="#000D3A" stop-opacity="0.5"/>
</linearGradient>
<linearGradient id="paint6_linear" x1="183.943" y1="634.923" x2="35.2214" y2="634.597" gradientUnits="userSpaceOnUse">
<stop stop-color="#54B948" stop-opacity="0.6"/>
<stop offset="1" stop-color="#000D3A" stop-opacity="0.5"/>
</linearGradient>
<linearGradient id="paint7_linear" x1="183.268" y1="206.117" x2="34.5461" y2="206.379" gradientUnits="userSpaceOnUse">
<stop stop-color="#54B948" stop-opacity="0.6"/>
<stop offset="1" stop-color="#000D3A" stop-opacity="0.5"/>
</linearGradient>
<linearGradient id="paint8_linear" x1="141.5" y1="384" x2="141.5" y2="421" gradientUnits="userSpaceOnUse">
<stop stop-color="#54B948"/>
<stop offset="1" stop-color="#52426B"/>
</linearGradient>
</defs>
</svg>
