<svg width="278" height="309" viewBox="0 0 278 309" fill="none" xmlns="http://www.w3.org/2000/svg">
<g filter="url(#filter0_d)">
<circle cx="138.903" cy="129.903" r="103.122" fill="url(#paint0_radial)"/>
<circle cx="138.903" cy="129.903" r="102.622" stroke="url(#paint1_linear)"/>
</g>
<path d="M138.903 12.2791C73.941 12.2791 21.2791 64.941 21.2791 129.903C21.2791 194.865 73.941 247.527 138.903 247.527C145.93 247.527 152.812 246.911 159.5 245.729M251.559 95.9729C254.79 106.716 256.527 118.107 256.527 129.903C256.527 160.602 244.766 188.554 225.504 209.5" stroke="url(#paint2_linear)"/>
<path d="M138.5 258C67.5314 258 10 200.469 10 129.5C10 113.278 13.0061 97.7574 18.4916 83.4659M138.5 1C156.235 1 173.131 4.59291 188.5 11.0906M217 231.243C247.414 207.742 267 170.909 267 129.5C267 109.82 262.576 91.1732 254.668 74.5" stroke="url(#paint3_linear)"/>
<defs>
<filter id="filter0_d" x="0.780518" y="26.7805" width="276.245" height="281.245" filterUnits="userSpaceOnUse" color-interpolation-filters="sRGB">
<feFlood flood-opacity="0" result="BackgroundImageFix"/>
<feColorMatrix in="SourceAlpha" type="matrix" values="0 0 0 0 0 0 0 0 0 0 0 0 0 0 0 0 0 0 127 0"/>
<feOffset dy="40"/>
<feGaussianBlur stdDeviation="17.5"/>
<feColorMatrix type="matrix" values="0 0 0 0 0.898039 0 0 0 0 0.898039 0 0 0 0 0.898039 0 0 0 1 0"/>
<feBlend mode="normal" in2="BackgroundImageFix" result="effect1_dropShadow"/>
<feBlend mode="normal" in="SourceGraphic" in2="effect1_dropShadow" result="shape"/>
</filter>
<radialGradient id="paint0_radial" cx="0" cy="0" r="1" gradientUnits="userSpaceOnUse" gradientTransform="translate(138.903 129.903) rotate(90) scale(103.122)">
<stop offset="0.552083" stop-color="white"/>
<stop offset="1" stop-color="#F7F8F1" stop-opacity="0.95"/>
</radialGradient>
<linearGradient id="paint1_linear" x1="138.903" y1="26.7805" x2="138.903" y2="233.025" gradientUnits="userSpaceOnUse">
<stop stop-color="#54B948"/>
<stop offset="1" stop-color="#52426B"/>
</linearGradient>
<linearGradient id="paint2_linear" x1="138.903" y1="12.2791" x2="138.903" y2="247.527" gradientUnits="userSpaceOnUse">
<stop stop-color="#54B948" stop-opacity="0.6"/>
<stop offset="1" stop-color="#000D3A" stop-opacity="0.5"/>
</linearGradient>
<linearGradient id="paint3_linear" x1="138.5" y1="1" x2="138.5" y2="258" gradientUnits="userSpaceOnUse">
<stop stop-color="#54B948" stop-opacity="0.6"/>
<stop offset="1" stop-color="#000D3A" stop-opacity="0.5"/>
</linearGradient>
</defs>
</svg>
