<svg width="217" height="62" viewBox="0 0 217 62" fill="none" xmlns="http://www.w3.org/2000/svg">
<g clip-path="url(#clip0)">
<path d="M75.916 43.2327H76.8426V48.0639C76.8426 48.9311 76.8426 49.7362 76.7808 50.4795H76.8426L81.7224 43.2327H82.8343V51.966H81.9078V47.1968C81.9078 46.3916 81.9695 45.5864 82.0313 44.6573H81.9695L77.0897 51.966H75.9778V43.2327H75.916Z" fill="white"/>
<path d="M86.7876 45.4006V48.1259H90.4321V45.4006H91.4204V51.9041H90.4321V48.9311H86.7876V51.9041H85.7993V45.4006H86.7876Z" fill="white"/>
<path d="M98.6476 46.2677H96.5474V51.966H95.5591V46.2677H93.4589V45.4006H98.6476V46.2677Z" fill="white"/>
<path d="M103.404 52.0899C102.416 52.0899 101.674 51.7802 101.118 51.2228C100.562 50.6654 100.254 49.7982 100.254 48.7453C100.254 47.6923 100.501 46.8871 101.057 46.2677C101.551 45.6484 102.292 45.3387 103.157 45.3387C103.96 45.3387 104.639 45.5864 105.072 46.1439C105.504 46.7013 105.813 47.3826 105.813 48.2498V48.8691H101.304C101.304 49.6124 101.489 50.2318 101.86 50.6034C102.23 50.975 102.724 51.2228 103.404 51.2228C104.083 51.2228 104.825 51.0989 105.504 50.7892V51.6564C105.134 51.7802 104.825 51.9041 104.516 51.9661C104.269 52.028 103.898 52.0899 103.404 52.0899ZM103.157 46.1439C102.663 46.1439 102.23 46.3297 101.921 46.6394C101.613 47.011 101.427 47.4446 101.366 48.064H104.763C104.763 47.4446 104.639 46.9491 104.33 46.6394C104.083 46.3297 103.651 46.1439 103.157 46.1439Z" fill="white"/>
<path d="M112.175 46.2677H109.21V51.966H108.222V45.4006H112.114V46.2677H112.175Z" fill="white"/>
<path d="M117.241 52.0899C116.808 52.0899 116.437 52.028 116.067 51.8422C115.696 51.6563 115.449 51.4705 115.202 51.0989H115.14C115.202 51.4705 115.202 51.8422 115.202 52.2138V54.8771H114.214V45.4006H115.017L115.14 46.2677H115.202C115.449 45.8961 115.758 45.6484 116.067 45.4625C116.376 45.2767 116.808 45.2148 117.241 45.2148C118.105 45.2148 118.785 45.5245 119.217 46.0819C119.711 46.7013 119.897 47.5065 119.897 48.5594C119.897 49.6124 119.65 50.4795 119.155 51.037C118.723 51.7802 118.105 52.0899 117.241 52.0899ZM117.117 46.1439C116.437 46.1439 115.943 46.3297 115.696 46.7013C115.387 47.0729 115.264 47.6304 115.264 48.4356V48.6833C115.264 49.6124 115.387 50.2318 115.696 50.6653C116.005 51.037 116.499 51.2847 117.179 51.2847C117.735 51.2847 118.167 51.037 118.476 50.6034C118.785 50.1698 118.97 49.4885 118.97 48.7453C118.97 47.9401 118.785 47.3207 118.476 46.8871C118.167 46.4535 117.673 46.1439 117.117 46.1439Z" fill="white"/>
<path d="M126.383 51.9661L126.197 51.037H126.135C125.827 51.4705 125.456 51.7183 125.147 51.8422C124.838 51.9661 124.406 52.0899 123.912 52.0899C123.294 52.0899 122.738 51.9041 122.367 51.5944C121.997 51.2847 121.812 50.7892 121.812 50.1698C121.812 48.8691 122.862 48.1878 124.962 48.1259L126.074 48.064V47.6304C126.074 47.1349 125.95 46.7633 125.765 46.5155C125.518 46.2677 125.209 46.1439 124.715 46.1439C124.159 46.1439 123.541 46.3297 122.862 46.6394L122.553 45.8961C122.862 45.7103 123.232 45.5864 123.603 45.4626C123.974 45.3387 124.344 45.3387 124.777 45.3387C125.58 45.3387 126.135 45.5245 126.506 45.8342C126.877 46.2058 127.062 46.7633 127.062 47.5065V51.9661H126.383ZM124.159 51.2847C124.777 51.2847 125.271 51.0989 125.58 50.7892C125.95 50.4795 126.135 49.984 126.135 49.3647V48.7453L125.147 48.8072C124.344 48.8072 123.788 48.9311 123.479 49.1788C123.109 49.3647 122.985 49.7363 122.985 50.1698C122.985 50.5415 123.109 50.7892 123.294 50.975C123.479 51.1609 123.788 51.2847 124.159 51.2847Z" fill="white"/>
<path d="M136.266 54.1958H135.278V51.966H129.904V45.4006H130.892V51.0989H134.351V45.4006H135.339V51.0989H136.266V54.1958Z" fill="white"/>
<path d="M139.231 45.4006V49.5504L139.169 50.6653V50.975L142.69 45.4006H143.925V51.9041H142.999V47.94V47.1348V46.3297L139.478 51.9041H138.243V45.4006H139.231Z" fill="white"/>
<path d="M147.076 51.966H145.902L147.755 49.1788C147.261 49.0549 146.89 48.8691 146.582 48.5594C146.334 48.2497 146.211 47.8161 146.211 47.3826C146.211 46.7632 146.396 46.3296 146.829 45.958C147.199 45.5864 147.817 45.4625 148.496 45.4625H151.4V51.966H150.411V49.3646H148.744L147.076 51.966ZM147.199 47.3826C147.199 48.1258 147.755 48.4974 148.867 48.4974H150.473V46.2677H148.682C147.693 46.2677 147.199 46.6393 147.199 47.3826Z" fill="white"/>
<path d="M159.059 45.4006V49.5504L158.997 50.6653V50.975L162.518 45.4006H163.754V51.9041H162.827V47.94V47.1348V46.3297L159.306 51.9041H158.071V45.4006H159.059Z" fill="white"/>
<path d="M173.081 52.0899C172.155 52.0899 171.413 51.7802 170.919 51.2228C170.425 50.6654 170.116 49.7982 170.116 48.7453C170.116 47.6304 170.363 46.8252 170.919 46.2058C171.475 45.5864 172.216 45.3387 173.143 45.3387C173.452 45.3387 173.761 45.4006 174.069 45.4626C174.378 45.5245 174.625 45.5864 174.811 45.7103L174.502 46.5774C174.255 46.5155 174.069 46.3916 173.761 46.3297C173.514 46.2678 173.266 46.2677 173.081 46.2677C171.784 46.2677 171.104 47.1349 171.104 48.8072C171.104 49.6124 171.29 50.2318 171.599 50.6654C171.907 51.0989 172.402 51.2847 173.019 51.2847C173.575 51.2847 174.131 51.1609 174.687 50.9131V51.7802C174.317 51.9661 173.761 52.0899 173.081 52.0899Z" fill="white"/>
<path d="M179.752 52.0899C178.764 52.0899 178.023 51.7802 177.467 51.2228C176.911 50.6654 176.602 49.7982 176.602 48.7453C176.602 47.6923 176.849 46.8871 177.405 46.2677C177.899 45.6484 178.64 45.3387 179.505 45.3387C180.308 45.3387 180.988 45.5864 181.42 46.1439C181.853 46.7013 182.161 47.3826 182.161 48.2498V48.8691H177.652C177.652 49.6124 177.837 50.2318 178.208 50.6034C178.579 50.975 179.073 51.2228 179.752 51.2228C180.432 51.2228 181.173 51.0989 181.853 50.7892V51.6564C181.482 51.7802 181.173 51.9041 180.864 51.9661C180.617 52.028 180.247 52.0899 179.752 52.0899ZM179.505 46.1439C179.011 46.1439 178.579 46.3297 178.27 46.6394C177.961 47.011 177.776 47.4446 177.714 48.064H181.111C181.111 47.4446 180.988 46.9491 180.679 46.6394C180.432 46.3297 179.999 46.1439 179.505 46.1439Z" fill="white"/>
<path d="M187.659 52.0899C187.227 52.0899 186.856 52.028 186.485 51.8422C186.115 51.6563 185.868 51.4705 185.621 51.0989H185.559C185.621 51.4705 185.621 51.8422 185.621 52.2138V54.8771H184.632V45.4006H185.435L185.559 46.2677H185.621C185.868 45.8961 186.176 45.6484 186.485 45.4625C186.794 45.2767 187.227 45.2148 187.659 45.2148C188.524 45.2148 189.203 45.5245 189.636 46.0819C190.13 46.7013 190.315 47.5065 190.315 48.5594C190.315 49.6124 190.068 50.4795 189.574 51.037C189.141 51.7802 188.462 52.0899 187.659 52.0899ZM187.474 46.1439C186.794 46.1439 186.3 46.3297 186.053 46.7013C185.744 47.0729 185.621 47.6304 185.621 48.4356V48.6833C185.621 49.6124 185.744 50.2318 186.053 50.6653C186.362 51.037 186.856 51.2847 187.535 51.2847C188.091 51.2847 188.524 51.037 188.833 50.6034C189.141 50.1698 189.327 49.4885 189.327 48.7453C189.327 47.9401 189.141 47.3207 188.833 46.8871C188.524 46.3916 188.091 46.1439 187.474 46.1439Z" fill="white"/>
<path d="M198.098 47.0729C198.098 47.5065 197.975 47.8162 197.728 48.0639C197.481 48.3117 197.172 48.4356 196.677 48.4975V48.5594C197.233 48.6214 197.666 48.8072 197.913 49.0549C198.16 49.3027 198.284 49.6743 198.284 50.1079C198.284 50.7273 198.036 51.1608 197.604 51.5325C197.172 51.8421 196.492 52.028 195.627 52.028H192.786V45.4006H195.627C197.295 45.4006 198.098 45.958 198.098 47.0729ZM197.11 47.1348C197.11 46.8252 196.986 46.5774 196.739 46.4535C196.492 46.3297 196.122 46.2677 195.627 46.2677H193.774V48.1259H195.442C196.06 48.1259 196.492 48.0639 196.739 47.8781C196.986 47.7542 197.11 47.5065 197.11 47.1348ZM197.295 49.984C197.295 49.6124 197.172 49.3646 196.925 49.2407C196.677 49.1169 196.245 48.993 195.627 48.993H193.836V51.1608H195.627C196.739 51.0989 197.295 50.7273 197.295 49.984Z" fill="white"/>
<path d="M201.372 45.4006V49.5504L201.31 50.6653V50.975L204.831 45.4006H206.067V51.9041H205.14V47.94V47.1348V46.3297L201.619 51.9041H200.384V45.4006H201.372Z" fill="white"/>
<path d="M211.502 52.0899C210.576 52.0899 209.835 51.7802 209.34 51.2228C208.846 50.6654 208.537 49.7982 208.537 48.7453C208.537 47.6304 208.784 46.8252 209.34 46.2058C209.896 45.5864 210.638 45.3387 211.564 45.3387C211.873 45.3387 212.182 45.4006 212.491 45.4626C212.8 45.5245 213.047 45.5864 213.232 45.7103L212.923 46.5774C212.676 46.5155 212.491 46.3916 212.182 46.3297C211.935 46.2678 211.688 46.2677 211.502 46.2677C210.205 46.2677 209.526 47.1349 209.526 48.8072C209.526 49.6124 209.711 50.2318 210.02 50.6654C210.329 51.0989 210.823 51.2847 211.441 51.2847C211.997 51.2847 212.553 51.1609 213.108 50.9131V51.7802C212.738 51.9661 212.182 52.0899 211.502 52.0899Z" fill="white"/>
<path d="M128.977 33.3227C127.433 32.9511 126.197 32.4556 125.271 31.8362L127.124 27.8102C127.989 28.3677 129.039 28.8012 130.274 29.1729C131.51 29.5445 132.683 29.6684 133.857 29.6684C136.266 29.6684 137.439 29.049 137.439 27.8722C137.439 27.3147 137.131 26.9431 136.451 26.6953C135.833 26.4476 134.783 26.2618 133.486 26.076C131.88 25.8282 130.583 25.5805 129.533 25.2708C128.483 24.9611 127.618 24.4036 126.877 23.5984C126.135 22.7932 125.765 21.6784 125.765 20.1918C125.765 18.9531 126.135 17.9001 126.815 16.9091C127.494 15.9801 128.545 15.2368 129.903 14.6794C131.262 14.1219 132.868 13.8742 134.722 13.8742C136.081 13.8742 137.439 13.998 138.798 14.3077C140.157 14.6174 141.269 15.051 142.196 15.5465L140.343 19.5725C138.613 18.5815 136.76 18.1479 134.783 18.1479C133.61 18.1479 132.683 18.3337 132.065 18.6434C131.448 18.9531 131.139 19.3867 131.139 19.9441C131.139 20.5635 131.448 20.997 132.127 21.1829C132.807 21.3687 133.795 21.6784 135.216 21.8642C136.822 22.1119 138.119 22.4216 139.107 22.7313C140.096 23.041 141.022 23.5984 141.763 24.4036C142.505 25.2088 142.875 26.3237 142.875 27.7483C142.875 28.9251 142.505 30.04 141.763 30.9691C141.022 31.8981 139.972 32.6414 138.613 33.1369C137.254 33.6324 135.586 33.9421 133.671 33.9421C132.065 33.8802 130.521 33.6943 128.977 33.3227Z" fill="white"/>
<path d="M159.553 32.7033C158.997 33.1369 158.318 33.4466 157.515 33.6324C156.712 33.8182 155.847 33.9421 154.982 33.9421C152.697 33.9421 150.905 33.3227 149.608 32.1459C148.373 30.969 147.693 29.2348 147.693 26.9431V18.953H144.728V14.6174H147.693V9.91009H153.315V14.6174H158.133V18.953H153.315V26.8811C153.315 27.6863 153.5 28.3057 153.932 28.8012C154.365 29.2348 154.921 29.4825 155.724 29.4825C156.588 29.4825 157.391 29.2348 158.009 28.7393L159.553 32.7033Z" fill="white"/>
<path d="M178.146 16.042C179.752 17.4666 180.555 19.6344 180.555 22.5455V33.6324H175.305V31.2168C174.255 33.013 172.278 33.9421 169.375 33.9421C167.892 33.9421 166.595 33.6943 165.483 33.1988C164.371 32.7033 163.568 32.022 162.951 31.0929C162.395 30.2258 162.086 29.1729 162.086 28.058C162.086 26.2618 162.765 24.8372 164.124 23.7843C165.483 22.7313 167.584 22.2358 170.425 22.2358H174.872C174.872 20.997 174.502 20.068 173.761 19.3867C173.019 18.7053 171.907 18.3956 170.425 18.3956C169.375 18.3956 168.387 18.5815 167.398 18.8911C166.41 19.2008 165.545 19.6344 164.866 20.1918L162.827 16.2278C163.877 15.4846 165.174 14.9271 166.657 14.4935C168.139 14.06 169.684 13.8742 171.228 13.8742C174.255 13.8742 176.54 14.6174 178.146 16.042ZM173.39 29.4206C174.131 28.9871 174.687 28.3057 174.996 27.4386V25.4566H171.104C168.819 25.4566 167.645 26.1998 167.645 27.7483C167.645 28.4915 167.954 29.049 168.51 29.4826C169.066 29.9161 169.869 30.1019 170.857 30.1019C171.784 30.1019 172.649 29.9161 173.39 29.4206Z" fill="white"/>
<path d="M194.454 14.6174C195.566 14.1219 196.925 13.8742 198.407 13.8742V19.077C197.789 19.015 197.357 19.015 197.172 19.015C195.566 19.015 194.33 19.4486 193.404 20.3777C192.477 21.3067 192.045 22.6074 192.045 24.4656V33.6324H186.424V14.1839H191.798V16.7233C192.415 15.7942 193.342 15.1129 194.454 14.6174Z" fill="white"/>
<path d="M215.703 32.7033C215.147 33.1369 214.467 33.4466 213.664 33.6324C212.861 33.8182 211.997 33.9421 211.132 33.9421C208.846 33.9421 207.055 33.3227 205.758 32.1459C204.522 30.969 203.843 29.2348 203.843 26.9431V18.953H200.878V14.6174H203.843V9.91009H209.464V14.6174H214.282V18.953H209.464V26.8811C209.464 27.6863 209.649 28.3057 210.082 28.8012C210.514 29.2967 211.07 29.4825 211.873 29.4825C212.738 29.4825 213.541 29.2348 214.159 28.7393L215.703 32.7033Z" fill="white"/>
<path d="M83.3285 14.3077C84.4404 13.8122 85.7993 13.5645 87.2818 13.5645V18.7673C86.6641 18.7053 86.2317 18.7053 86.0464 18.7053C84.4404 18.7053 83.205 19.1389 82.2784 20.068C81.3518 20.997 80.9195 22.2977 80.9195 24.1559V33.3227H75.2983V13.8742H80.6724V16.4136C81.2283 15.4846 82.1549 14.8032 83.3285 14.3077Z" fill="#00803C"/>
<path d="M110.013 25.2088H95.3737C95.6208 26.3857 96.2385 27.3767 97.2269 28.058C98.2152 28.7393 99.4506 29.1109 100.933 29.1109C101.921 29.1109 102.848 28.9871 103.589 28.6774C104.392 28.3677 105.072 27.8722 105.751 27.2528L108.716 30.5355C106.863 32.6414 104.207 33.6944 100.686 33.6944C98.524 33.6944 96.5474 33.2608 94.8796 32.3937C93.2118 31.5265 91.9146 30.3497 90.988 28.8632C90.0615 27.3147 89.6291 25.6424 89.6291 23.7223C89.6291 21.8023 90.0615 20.1299 90.988 18.5815C91.9146 17.033 93.15 15.8562 94.6943 14.9891C96.2385 14.1219 98.0299 13.6884 99.9448 13.6884C101.86 13.6884 103.589 14.1219 105.072 14.9271C106.616 15.7323 107.79 16.9091 108.716 18.4576C109.581 20.006 110.013 21.7403 110.013 23.7843C110.137 23.7223 110.075 24.2798 110.013 25.2088ZM96.8562 18.9531C95.9915 19.6964 95.4355 20.6874 95.2502 21.9261H104.825C104.639 20.6874 104.083 19.6964 103.219 18.9531C102.354 18.2098 101.304 17.8382 100.068 17.8382C98.8329 17.8382 97.721 18.2098 96.8562 18.9531Z" fill="#00803C"/>
<path d="M114.276 19.6344C113.596 18.953 113.287 18.0859 113.287 17.0949C113.287 16.042 113.596 15.2368 114.276 14.5554C114.955 13.9361 115.758 13.6264 116.746 13.6264C117.735 13.6264 118.538 13.9361 119.217 14.5554C119.897 15.1748 120.206 16.042 120.206 17.0949C120.206 18.0859 119.897 18.953 119.217 19.6344C118.538 20.3157 117.735 20.6254 116.746 20.6254C115.758 20.6254 114.893 20.3157 114.276 19.6344ZM114.276 32.5794C113.596 31.8981 113.287 31.031 113.287 30.04C113.287 28.987 113.596 28.1818 114.276 27.5005C114.955 26.8811 115.758 26.5714 116.746 26.5714C117.735 26.5714 118.538 26.8811 119.217 27.5005C119.897 28.1199 120.206 28.987 120.206 30.04C120.206 31.031 119.897 31.8981 119.217 32.5794C118.538 33.2607 117.735 33.5704 116.746 33.5704C115.758 33.6324 114.893 33.2607 114.276 32.5794Z" fill="#00803C"/>
<path d="M61.7706 31.031C61.7706 34.933 61.0293 38.8351 59.5468 42.4895C58.1261 46.1438 55.9641 49.4885 53.2462 52.3376C47.8104 58.0979 40.0891 61.6903 31.9354 61.938C27.9203 62.0619 23.7817 61.4425 19.9519 59.956C16.1221 58.4695 12.5394 56.3017 9.51267 53.3906C6.60945 50.6034 4.13863 47.0729 2.53259 43.2328C0.864788 39.3926 0.0617706 35.1808 0 30.969C0 26.7572 0.864788 22.5454 2.53259 18.7053C4.2004 14.8651 6.60945 11.3347 9.57444 8.4855C12.6012 5.63635 16.1839 3.40658 20.0137 1.92006C23.8434 0.495489 27.9203 -0.123891 31.9972 -1.49719e-05C40.0891 0.309675 47.8722 3.90208 53.308 9.66232C56.0259 12.5115 58.1879 15.9181 59.6086 19.5724C61.0293 23.1648 61.7706 27.0669 61.7706 31.031ZM61.7706 31.031C61.7706 27.1289 60.9676 23.2268 59.4233 19.6344C57.879 16.0419 55.5935 12.8212 52.8138 10.0959C50.0342 7.43255 46.6986 5.32666 43.1159 4.02596C39.5332 2.66332 35.7034 2.10588 31.9354 2.22976C24.4611 2.47751 17.234 5.82216 12.2306 11.2108C9.69798 13.8741 7.72132 17.033 6.36237 20.3776C5.06519 23.7223 4.32394 27.3766 4.32394 31.031C4.32394 34.6853 5.00342 38.2777 6.36237 41.6843C7.72132 45.0909 9.69798 48.1878 12.2306 50.8511C17.234 56.2397 24.4611 59.5844 31.9972 59.8321C35.7652 59.956 39.5949 59.3986 43.1776 58.0359C46.7603 56.6733 50.0959 54.6294 52.8756 51.966C55.6553 49.3027 57.9408 46.02 59.4851 42.4276C60.9676 38.8351 61.7706 34.933 61.7706 31.031Z" fill="url(#paint0_linear)"/>
<path d="M8.70966 27.067C10.8716 14.1838 23.0404 5.45058 35.9505 7.68035C38.2978 8.05197 40.5215 8.79523 42.5599 9.84818C51.6402 14.3697 57.076 24.4656 55.2847 34.995C53.1227 47.8162 40.8921 56.5495 28.0438 54.3816C23.4111 53.5765 19.2724 51.4706 16.0604 48.4975C10.3157 43.2328 7.28893 35.3047 8.70966 27.067Z" fill="url(#paint1_linear)"/>
</g>
<defs>
<linearGradient id="paint0_linear" x1="0" y1="30.998" x2="63.9699" y2="30.998" gradientUnits="userSpaceOnUse">
<stop stop-color="#54B948"/>
<stop offset="0.3764" stop-color="#00A651"/>
<stop offset="1" stop-color="#005826"/>
</linearGradient>
<linearGradient id="paint1_linear" x1="55.2747" y1="34.9407" x2="8.68615" y2="27.1082" gradientUnits="userSpaceOnUse">
<stop stop-color="#54B948"/>
<stop offset="0.3764" stop-color="#00A651"/>
<stop offset="1" stop-color="#005826"/>
</linearGradient>
<clipPath id="clip0">
<rect width="217" height="62" fill="white"/>
</clipPath>
</defs>
</svg>
