<svg width="177" height="746" viewBox="0 0 177 746" fill="none" xmlns="http://www.w3.org/2000/svg">
<g filter="url(#filter0_d)">
<circle cx="88.0994" cy="58.4441" r="45.7648" transform="rotate(90.101 88.0994 58.4441)" fill="url(#paint0_radial)"/>
<circle cx="88.0994" cy="58.4441" r="45.2648" transform="rotate(90.101 88.0994 58.4441)" stroke="url(#paint1_linear)"/>
</g>
<path d="M140.3 58.5361C140.35 29.7066 117.021 6.2945 88.1912 6.24368C59.3617 6.19286 35.9496 29.5226 35.8987 58.3521C35.8932 61.4704 36.1613 64.5254 36.6803 67.4943M103.069 108.466C98.2985 109.892 93.2422 110.654 88.0071 110.645C74.3832 110.621 61.9874 105.379 52.7069 96.8148" stroke="url(#paint2_linear)"/>
<path d="M31.2509 58.1652C31.3064 26.67 56.8834 1.18307 88.3786 1.23859C95.5779 1.25128 102.463 2.59749 108.801 5.04309M145.305 58.3663C145.291 66.237 143.684 73.7325 140.788 80.5479M43.0641 93.0238C53.4695 106.539 69.8008 115.261 88.1775 115.293C96.9114 115.308 105.19 113.36 112.596 109.863" stroke="url(#paint3_linear)"/>
<path d="M31 57.9998L14.1332 57.866L2 27.9998" stroke="url(#paint4_linear)"/>
<path d="M123 221L153.825 220.866L176 191" stroke="url(#paint5_linear)"/>
<g filter="url(#filter1_d)">
<circle cx="88.1324" cy="221.109" r="28.0384" transform="rotate(90.101 88.1324 221.109)" fill="url(#paint6_radial)"/>
<circle cx="88.1324" cy="221.109" r="27.5384" transform="rotate(90.101 88.1324 221.109)" stroke="url(#paint7_linear)"/>
</g>
<path d="M120.114 221.165C120.145 203.502 105.852 189.159 88.1892 189.127C70.5264 189.096 56.1827 203.39 56.1516 221.052C56.1482 222.963 56.3124 224.835 56.6304 226.653M97.3042 251.756C94.3816 252.629 91.2837 253.096 88.0764 253.09C79.7295 253.075 72.1351 249.864 66.4493 244.617" stroke="url(#paint8_linear)"/>
<path d="M53.3038 220.938C53.3378 201.642 69.0078 186.027 88.3038 186.061C92.7145 186.069 96.933 186.894 100.816 188.392M123.181 221.061C123.172 225.883 122.187 230.475 120.413 234.651M60.5413 242.294C66.9163 250.575 76.9219 255.918 88.1806 255.938C93.5315 255.947 98.6036 254.753 103.141 252.611" stroke="url(#paint9_linear)"/>
<line x1="88.7427" y1="115.999" x2="88.7427" y2="185.999" stroke="url(#paint10_linear)"/>
<g filter="url(#filter2_d)">
<circle cx="87.8907" cy="361.11" r="28.0384" transform="rotate(90.101 87.8907 361.11)" fill="url(#paint11_radial)"/>
<circle cx="87.8907" cy="361.11" r="27.5384" transform="rotate(90.101 87.8907 361.11)" stroke="url(#paint12_linear)"/>
</g>
<path d="M119.872 361.166C119.903 343.503 105.61 329.16 87.9475 329.128C70.2847 329.097 55.941 343.391 55.9099 361.053C55.9065 362.964 56.0707 364.835 56.3887 366.654M97.0625 391.757C94.1399 392.63 91.042 393.097 87.8347 393.091C79.4878 393.076 71.8934 389.865 66.2076 384.618" stroke="url(#paint13_linear)"/>
<path d="M53.0621 360.939C53.0961 341.643 68.7661 326.028 88.0621 326.062C92.4728 326.07 96.6913 326.894 100.574 328.393M122.939 361.062C122.93 365.884 121.945 370.476 120.171 374.652M60.2996 382.295C66.6746 390.576 76.6802 395.919 87.9389 395.939C93.2898 395.948 98.3619 394.754 102.899 392.612" stroke="url(#paint14_linear)"/>
<line x1="88.5078" y1="255.998" x2="88.5078" y2="325.998" stroke="url(#paint15_linear)"/>
<path d="M53 361L22.7561 360.866L1 331" stroke="url(#paint16_linear)"/>
<path d="M123 501L153.826 500.866L176 471" stroke="url(#paint17_linear)"/>
<g filter="url(#filter3_d)">
<circle cx="87.8903" cy="501.171" r="28.0384" transform="rotate(90.101 87.8903 501.171)" fill="url(#paint18_radial)"/>
<circle cx="87.8903" cy="501.171" r="27.5384" transform="rotate(90.101 87.8903 501.171)" stroke="url(#paint19_linear)"/>
</g>
<path d="M119.872 501.227C119.903 483.565 105.61 469.221 87.947 469.19C70.2842 469.159 55.9405 483.452 55.9094 501.115C55.906 503.025 56.0702 504.897 56.3882 506.716M97.062 531.818C94.1394 532.691 91.0415 533.158 87.8342 533.152C79.4873 533.137 71.8929 529.926 66.2071 524.679" stroke="url(#paint20_linear)"/>
<path d="M53.0616 501C53.0956 481.704 68.7656 466.089 88.0616 466.123C92.4724 466.131 96.6908 466.956 100.574 468.454M122.938 501.123C122.93 505.945 121.945 510.538 120.171 514.713M60.2991 522.357C66.6741 530.637 76.6797 535.98 87.9384 536C93.2893 536.009 98.3614 534.816 102.899 532.673" stroke="url(#paint21_linear)"/>
<line x1="88.5063" y1="396.062" x2="88.5063" y2="466.062" stroke="url(#paint22_linear)"/>
<g filter="url(#filter4_d)">
<circle cx="88.005" cy="642.263" r="28.0384" transform="rotate(90.101 88.005 642.263)" fill="url(#paint23_radial)"/>
<circle cx="88.005" cy="642.263" r="27.5384" transform="rotate(90.101 88.005 642.263)" stroke="url(#paint24_linear)"/>
</g>
<path d="M119.987 642.319C120.018 624.657 105.724 610.313 88.0617 610.282C70.399 610.251 56.0552 624.544 56.0241 642.207C56.0207 644.117 56.185 645.989 56.5029 647.808M97.1767 672.91C94.2541 673.783 91.1563 674.25 87.949 674.244C79.6021 674.23 72.0076 671.018 66.3218 665.771" stroke="url(#paint25_linear)"/>
<path d="M53.1763 642.092C53.2104 622.796 68.8804 607.181 88.1763 607.215C92.5871 607.223 96.8055 608.048 100.689 609.546M123.053 642.215C123.045 647.037 122.06 651.63 120.286 655.805M60.4138 663.449C66.7889 671.729 76.7944 677.072 88.0532 677.092C93.4041 677.102 98.4761 675.908 103.013 673.765" stroke="url(#paint26_linear)"/>
<line x1="88.6221" y1="537.151" x2="88.6221" y2="607.151" stroke="url(#paint27_linear)"/>
<path d="M53.1143 642.153L22.8703 642.02L1.11426 612.153" stroke="url(#paint28_linear)"/>
<defs>
<filter id="filter0_d" x="7.25391" y="12.5986" width="161.691" height="166.691" filterUnits="userSpaceOnUse" color-interpolation-filters="sRGB">
<feFlood flood-opacity="0" result="BackgroundImageFix"/>
<feColorMatrix in="SourceAlpha" type="matrix" values="0 0 0 0 0 0 0 0 0 0 0 0 0 0 0 0 0 0 127 0"/>
<feOffset dy="40"/>
<feGaussianBlur stdDeviation="17.5"/>
<feColorMatrix type="matrix" values="0 0 0 0 0.898039 0 0 0 0 0.898039 0 0 0 0 0.898039 0 0 0 1 0"/>
<feBlend mode="normal" in2="BackgroundImageFix" result="effect1_dropShadow"/>
<feBlend mode="normal" in="SourceGraphic" in2="effect1_dropShadow" result="shape"/>
</filter>
<filter id="filter1_d" x="25.0444" y="193.021" width="126.176" height="131.176" filterUnits="userSpaceOnUse" color-interpolation-filters="sRGB">
<feFlood flood-opacity="0" result="BackgroundImageFix"/>
<feColorMatrix in="SourceAlpha" type="matrix" values="0 0 0 0 0 0 0 0 0 0 0 0 0 0 0 0 0 0 127 0"/>
<feOffset dy="40"/>
<feGaussianBlur stdDeviation="17.5"/>
<feColorMatrix type="matrix" values="0 0 0 0 0.898039 0 0 0 0 0.898039 0 0 0 0 0.898039 0 0 0 1 0"/>
<feBlend mode="normal" in2="BackgroundImageFix" result="effect1_dropShadow"/>
<feBlend mode="normal" in="SourceGraphic" in2="effect1_dropShadow" result="shape"/>
</filter>
<filter id="filter2_d" x="24.8027" y="333.022" width="126.176" height="131.176" filterUnits="userSpaceOnUse" color-interpolation-filters="sRGB">
<feFlood flood-opacity="0" result="BackgroundImageFix"/>
<feColorMatrix in="SourceAlpha" type="matrix" values="0 0 0 0 0 0 0 0 0 0 0 0 0 0 0 0 0 0 127 0"/>
<feOffset dy="40"/>
<feGaussianBlur stdDeviation="17.5"/>
<feColorMatrix type="matrix" values="0 0 0 0 0.898039 0 0 0 0 0.898039 0 0 0 0 0.898039 0 0 0 1 0"/>
<feBlend mode="normal" in2="BackgroundImageFix" result="effect1_dropShadow"/>
<feBlend mode="normal" in="SourceGraphic" in2="effect1_dropShadow" result="shape"/>
</filter>
<filter id="filter3_d" x="24.8022" y="473.083" width="126.176" height="131.176" filterUnits="userSpaceOnUse" color-interpolation-filters="sRGB">
<feFlood flood-opacity="0" result="BackgroundImageFix"/>
<feColorMatrix in="SourceAlpha" type="matrix" values="0 0 0 0 0 0 0 0 0 0 0 0 0 0 0 0 0 0 127 0"/>
<feOffset dy="40"/>
<feGaussianBlur stdDeviation="17.5"/>
<feColorMatrix type="matrix" values="0 0 0 0 0.898039 0 0 0 0 0.898039 0 0 0 0 0.898039 0 0 0 1 0"/>
<feBlend mode="normal" in2="BackgroundImageFix" result="effect1_dropShadow"/>
<feBlend mode="normal" in="SourceGraphic" in2="effect1_dropShadow" result="shape"/>
</filter>
<filter id="filter4_d" x="24.917" y="614.175" width="126.176" height="131.176" filterUnits="userSpaceOnUse" color-interpolation-filters="sRGB">
<feFlood flood-opacity="0" result="BackgroundImageFix"/>
<feColorMatrix in="SourceAlpha" type="matrix" values="0 0 0 0 0 0 0 0 0 0 0 0 0 0 0 0 0 0 127 0"/>
<feOffset dy="40"/>
<feGaussianBlur stdDeviation="17.5"/>
<feColorMatrix type="matrix" values="0 0 0 0 0.898039 0 0 0 0 0.898039 0 0 0 0 0.898039 0 0 0 1 0"/>
<feBlend mode="normal" in2="BackgroundImageFix" result="effect1_dropShadow"/>
<feBlend mode="normal" in="SourceGraphic" in2="effect1_dropShadow" result="shape"/>
</filter>
<radialGradient id="paint0_radial" cx="0" cy="0" r="1" gradientUnits="userSpaceOnUse" gradientTransform="translate(88.0994 58.4441) rotate(90) scale(45.7648)">
<stop offset="0.552083" stop-color="white"/>
<stop offset="1" stop-color="#F7F8F1" stop-opacity="0.95"/>
</radialGradient>
<linearGradient id="paint1_linear" x1="88.0994" y1="12.6793" x2="88.0994" y2="104.209" gradientUnits="userSpaceOnUse">
<stop stop-color="#54B948"/>
<stop offset="1" stop-color="#52426B"/>
</linearGradient>
<linearGradient id="paint2_linear" x1="140.3" y1="58.5361" x2="35.8988" y2="58.3521" gradientUnits="userSpaceOnUse">
<stop stop-color="#54B948" stop-opacity="0.6"/>
<stop offset="1" stop-color="#000D3A" stop-opacity="0.5"/>
</linearGradient>
<linearGradient id="paint3_linear" x1="145.305" y1="58.3663" x2="31.2509" y2="58.1652" gradientUnits="userSpaceOnUse">
<stop stop-color="#54B948" stop-opacity="0.6"/>
<stop offset="1" stop-color="#000D3A" stop-opacity="0.5"/>
</linearGradient>
<linearGradient id="paint4_linear" x1="22.5769" y1="58.0008" x2="22.5769" y2="5.21325" gradientUnits="userSpaceOnUse">
<stop stop-color="#000D3A" stop-opacity="0.5"/>
<stop offset="1" stop-color="#54B948"/>
</linearGradient>
<linearGradient id="paint5_linear" x1="138.393" y1="221.001" x2="138.393" y2="168.213" gradientUnits="userSpaceOnUse">
<stop stop-color="#54B948" stop-opacity="0.6"/>
<stop offset="1" stop-color="#000D3A" stop-opacity="0.5"/>
</linearGradient>
<radialGradient id="paint6_radial" cx="0" cy="0" r="1" gradientUnits="userSpaceOnUse" gradientTransform="translate(88.1324 221.109) rotate(90) scale(28.0384)">
<stop offset="0.552083" stop-color="white"/>
<stop offset="1" stop-color="#F7F8F1" stop-opacity="0.95"/>
</radialGradient>
<linearGradient id="paint7_linear" x1="88.1324" y1="193.07" x2="88.1324" y2="249.147" gradientUnits="userSpaceOnUse">
<stop stop-color="#54B948"/>
<stop offset="1" stop-color="#52426B"/>
</linearGradient>
<linearGradient id="paint8_linear" x1="120.114" y1="221.165" x2="56.1516" y2="221.052" gradientUnits="userSpaceOnUse">
<stop stop-color="#54B948" stop-opacity="0.6"/>
<stop offset="1" stop-color="#000D3A" stop-opacity="0.5"/>
</linearGradient>
<linearGradient id="paint9_linear" x1="123.181" y1="221.061" x2="53.3038" y2="220.938" gradientUnits="userSpaceOnUse">
<stop stop-color="#54B948" stop-opacity="0.6"/>
<stop offset="1" stop-color="#000D3A" stop-opacity="0.5"/>
</linearGradient>
<linearGradient id="paint10_linear" x1="88.2427" y1="115.999" x2="88.2427" y2="185.999" gradientUnits="userSpaceOnUse">
<stop stop-color="#54B948"/>
<stop offset="1" stop-color="#52426B"/>
</linearGradient>
<radialGradient id="paint11_radial" cx="0" cy="0" r="1" gradientUnits="userSpaceOnUse" gradientTransform="translate(87.8907 361.11) rotate(90) scale(28.0384)">
<stop offset="0.552083" stop-color="white"/>
<stop offset="1" stop-color="#F7F8F1" stop-opacity="0.95"/>
</radialGradient>
<linearGradient id="paint12_linear" x1="87.8907" y1="333.071" x2="87.8907" y2="389.148" gradientUnits="userSpaceOnUse">
<stop stop-color="#54B948"/>
<stop offset="1" stop-color="#52426B"/>
</linearGradient>
<linearGradient id="paint13_linear" x1="119.872" y1="361.166" x2="55.9099" y2="361.053" gradientUnits="userSpaceOnUse">
<stop stop-color="#54B948" stop-opacity="0.6"/>
<stop offset="1" stop-color="#000D3A" stop-opacity="0.5"/>
</linearGradient>
<linearGradient id="paint14_linear" x1="122.939" y1="361.062" x2="53.0621" y2="360.939" gradientUnits="userSpaceOnUse">
<stop stop-color="#54B948" stop-opacity="0.6"/>
<stop offset="1" stop-color="#000D3A" stop-opacity="0.5"/>
</linearGradient>
<linearGradient id="paint15_linear" x1="88.0078" y1="255.998" x2="88.0078" y2="325.998" gradientUnits="userSpaceOnUse">
<stop stop-color="#54B948"/>
<stop offset="1" stop-color="#52426B"/>
</linearGradient>
<linearGradient id="paint16_linear" x1="37.8966" y1="361.001" x2="37.8966" y2="308.213" gradientUnits="userSpaceOnUse">
<stop stop-color="#000D3A" stop-opacity="0.5"/>
<stop offset="1" stop-color="#54B948" stop-opacity="0.6"/>
</linearGradient>
<linearGradient id="paint17_linear" x1="138.394" y1="501.001" x2="138.394" y2="448.213" gradientUnits="userSpaceOnUse">
<stop stop-color="#54B948" stop-opacity="0.6"/>
<stop offset="1" stop-color="#000D3A" stop-opacity="0.5"/>
</linearGradient>
<radialGradient id="paint18_radial" cx="0" cy="0" r="1" gradientUnits="userSpaceOnUse" gradientTransform="translate(87.8902 501.171) rotate(90) scale(28.0384)">
<stop offset="0.552083" stop-color="white"/>
<stop offset="1" stop-color="#F7F8F1" stop-opacity="0.95"/>
</radialGradient>
<linearGradient id="paint19_linear" x1="87.8902" y1="473.132" x2="87.8902" y2="529.209" gradientUnits="userSpaceOnUse">
<stop stop-color="#54B948"/>
<stop offset="1" stop-color="#52426B"/>
</linearGradient>
<linearGradient id="paint20_linear" x1="119.872" y1="501.227" x2="55.9094" y2="501.115" gradientUnits="userSpaceOnUse">
<stop stop-color="#54B948" stop-opacity="0.6"/>
<stop offset="1" stop-color="#000D3A" stop-opacity="0.5"/>
</linearGradient>
<linearGradient id="paint21_linear" x1="122.938" y1="501.123" x2="53.0616" y2="501" gradientUnits="userSpaceOnUse">
<stop stop-color="#54B948" stop-opacity="0.6"/>
<stop offset="1" stop-color="#000D3A" stop-opacity="0.5"/>
</linearGradient>
<linearGradient id="paint22_linear" x1="88.0063" y1="396.062" x2="88.0063" y2="466.062" gradientUnits="userSpaceOnUse">
<stop stop-color="#54B948"/>
<stop offset="1" stop-color="#52426B"/>
</linearGradient>
<radialGradient id="paint23_radial" cx="0" cy="0" r="1" gradientUnits="userSpaceOnUse" gradientTransform="translate(88.005 642.263) rotate(90) scale(28.0384)">
<stop offset="0.552083" stop-color="white"/>
<stop offset="1" stop-color="#F7F8F1" stop-opacity="0.95"/>
</radialGradient>
<linearGradient id="paint24_linear" x1="88.005" y1="614.224" x2="88.005" y2="670.301" gradientUnits="userSpaceOnUse">
<stop stop-color="#54B948"/>
<stop offset="1" stop-color="#52426B"/>
</linearGradient>
<linearGradient id="paint25_linear" x1="119.987" y1="642.319" x2="56.0241" y2="642.207" gradientUnits="userSpaceOnUse">
<stop stop-color="#54B948" stop-opacity="0.6"/>
<stop offset="1" stop-color="#000D3A" stop-opacity="0.5"/>
</linearGradient>
<linearGradient id="paint26_linear" x1="123.053" y1="642.215" x2="53.1763" y2="642.092" gradientUnits="userSpaceOnUse">
<stop stop-color="#54B948" stop-opacity="0.6"/>
<stop offset="1" stop-color="#000D3A" stop-opacity="0.5"/>
</linearGradient>
<linearGradient id="paint27_linear" x1="88.1221" y1="537.151" x2="88.1221" y2="607.151" gradientUnits="userSpaceOnUse">
<stop stop-color="#54B948"/>
<stop offset="1" stop-color="#52426B"/>
</linearGradient>
<linearGradient id="paint28_linear" x1="38.0108" y1="642.154" x2="38.0108" y2="589.367" gradientUnits="userSpaceOnUse">
<stop stop-color="#000D3A" stop-opacity="0.5"/>
<stop offset="1" stop-color="#54B948" stop-opacity="0.6"/>
</linearGradient>
</defs>
</svg>
